<svg xmlns="http://www.w3.org/2000/svg" width="153.131" height="153.132" viewBox="0 0 153.131 153.132">
  <path id="Icon_awesome-recycle" data-name="Icon awesome-recycle" d="M55.2,78.331A4.789,4.789,0,0,1,48,83.466L35.817,75.853,20.6,100.2a9.588,9.588,0,0,0,8.112,14.65H44.265a3.589,3.589,0,0,1,3.589,3.589V130.4a3.589,3.589,0,0,1-3.589,3.589H28.746c-22.531,0-36.28-24.838-24.348-43.93L19.6,65.719,7.418,58.108a4.789,4.789,0,0,1,1.459-8.721l32.97-7.612a4.785,4.785,0,0,1,5.739,3.586L55.2,78.331ZM84.677,23.624,97.026,43.387,84.842,51A4.789,4.789,0,0,0,86.3,59.721l32.97,7.612a4.785,4.785,0,0,0,5.739-3.586l7.612-32.97a4.789,4.789,0,0,0-7.2-5.135l-12.169,7.6L100.914,13.482a28.727,28.727,0,0,0-48.7,0l-5.372,8.6a3.589,3.589,0,0,0,1.143,4.945l10.145,6.339a3.589,3.589,0,0,0,4.946-1.142l5.372-8.6A9.581,9.581,0,0,1,84.677,23.624Zm64.054,66.436L140.5,76.881a3.589,3.589,0,0,0-4.946-1.143l-10.127,6.328a3.589,3.589,0,0,0-1.142,4.946l8.244,13.193a9.587,9.587,0,0,1-8.116,14.643H95.707V100.5a4.789,4.789,0,0,0-8.169-3.384L63.611,121.036a4.785,4.785,0,0,0,0,6.767l23.927,23.924a4.789,4.789,0,0,0,8.169-3.384V133.99h28.676C146.9,133.99,160.673,109.167,148.731,90.061Z" fill="#173868"/>
</svg>
