<svg xmlns="http://www.w3.org/2000/svg" width="145.797" height="199.024" viewBox="0 0 145.797 199.024">
  <g id="_3review" data-name="3review" transform="translate(0)">
    <path id="Path_195" data-name="Path 195" d="M330.069,428.519a4.738,4.738,0,0,1-3.6-1.605L314.8,413.9l7.461,65.633h15.617l7.5-65.633-11.669,13.014a5.061,5.061,0,0,1-3.644,1.605Z" transform="translate(-257.193 -280.509)" fill="#325f8d"/>
    <path id="Path_196" data-name="Path 196" d="M407.3,147.523a13.475,13.475,0,0,1,2.993.3A56.092,56.092,0,0,0,361.1,106.4V130l32.795,17.482Z" transform="translate(-283.408 -106.4)" fill="#325f8d"/>
    <path id="Path_197" data-name="Path 197" d="M241.854,147.58,274.649,130.1V106.5A55.948,55.948,0,0,0,225.5,147.884a13.475,13.475,0,0,1,2.993-.3Z" transform="translate(-206.63 -106.457)" fill="#325f8d"/>
    <path id="Path_198" data-name="Path 198" d="M202.865,451.585a4.863,4.863,0,0,1-.564-6.2l.26-.3a53.6,53.6,0,0,1-8.372.651,4.85,4.85,0,0,1-4.858-4.858V431.5A39.984,39.984,0,0,0,182,454.578v29.064c0,3.167,2.3,5.769,5.162,5.769h12.45l12.97-28.11Z" transform="translate(-182 -290.474)" fill="#325f8d"/>
    <path id="Path_199" data-name="Path 199" d="M254.544,440.023l-4.989,7.288,9.283,9.283a4.752,4.752,0,0,1,.954,5.509L247.3,489.215h26.982L267.6,431a54.747,54.747,0,0,1-13.057,9.023Z" transform="translate(-218.974 -290.191)" fill="#325f8d"/>
    <path id="Path_200" data-name="Path 200" d="M334.769,356.584a41.237,41.237,0,0,1-7.721-.737,52.148,52.148,0,0,1-3.948,14.532l11.626,12.927,15.747-17.525v-.087L344.1,355.5a46.882,46.882,0,0,1-9.327,1.084Z" transform="translate(-261.892 -247.442)" fill="#325f8d"/>
    <path id="Path_201" data-name="Path 201" d="M423.218,391.6H421.7l21.516,31.233a4.917,4.917,0,0,1-.564,6.2l-9.76,9.76,12.97,28.11h12.8a4.85,4.85,0,0,0,4.858-4.858V432.029a40.443,40.443,0,0,0-40.3-40.429Z" transform="translate(-317.72 -267.883)" fill="#325f8d"/>
    <path id="Path_202" data-name="Path 202" d="M405.943,445.4l9.283-9.283L398.135,411.3,390.5,478.017h26.938l-12.493-27.112a4.931,4.931,0,0,1,1-5.509Z" transform="translate(-300.055 -279.037)" fill="#325f8d"/>
    <path id="Path_203" data-name="Path 203" d="M413.935,289.951A41.493,41.493,0,0,1,393.2,314.59l5.162,8.242A41.424,41.424,0,0,0,429.769,289.3a13.906,13.906,0,0,1-4.295.651Z" transform="translate(-301.583 -209.959)" fill="#325f8d"/>
    <path id="Path_204" data-name="Path 204" d="M226.058,242.934h9.847c-.043-.781-.13-1.605-.13-2.429v-17h-9.717a4.85,4.85,0,0,0-4.858,4.858v9.717a4.85,4.85,0,0,0,4.858,4.858Z" transform="translate(-204.195 -172.703)" fill="#325f8d"/>
    <path id="Path_205" data-name="Path 205" d="M445.03,223.6v17c0,.824-.087,1.648-.13,2.429h9.847a4.851,4.851,0,0,0,4.858-4.858v-9.717a4.851,4.851,0,0,0-4.858-4.858Z" transform="translate(-330.856 -172.76)" fill="#325f8d"/>
    <path id="Path_206" data-name="Path 206" d="M237.6,289.668H226.058a13.972,13.972,0,0,1-4.858-.868v66.153A43.8,43.8,0,0,0,259.894,315a42.306,42.306,0,0,1-5.986-3.34A41.563,41.563,0,0,1,237.6,289.668Z" transform="translate(-204.195 -209.676)" fill="#325f8d"/>
    <path id="Path_207" data-name="Path 207" d="M277.2,216.031a31.45,31.45,0,0,0,2.429,12.146h17a4.858,4.858,0,0,1,0,9.717H286.049a31.54,31.54,0,0,0,54.311-21.863V197.074L308.78,180.2,277.2,197.075Z" transform="translate(-235.903 -148.186)" fill="#325f8d"/>
  </g>
</svg>
