<svg xmlns="http://www.w3.org/2000/svg" width="94.734" height="142.21" viewBox="0 0 94.734 142.21">
  <path id="Icon_awesome-mobile-alt" data-name="Icon awesome-mobile-alt" d="M80.524,0H14.21C6.365,0,0,5.972,0,13.332V128.878c0,7.361,6.365,13.332,14.21,13.332H80.524c7.845,0,14.21-5.972,14.21-13.332V13.332C94.734,5.972,88.369,0,80.524,0ZM47.367,133.322c-5.24,0-9.473-3.972-9.473-8.888s4.233-8.888,9.473-8.888,9.473,3.972,9.473,8.888S52.607,133.322,47.367,133.322Zm33.157-30a3.458,3.458,0,0,1-3.553,3.333H17.763a3.458,3.458,0,0,1-3.553-3.333V16.665a3.458,3.458,0,0,1,3.553-3.333H76.971a3.458,3.458,0,0,1,3.553,3.333Z" fill="#173868"/>
</svg>
