<svg xmlns="http://www.w3.org/2000/svg" width="193.488" height="199.197" viewBox="0 0 193.488 199.197">
  <g id="_2review" data-name="2review" transform="translate(0)">
    <path id="Path_182" data-name="Path 182" d="M205.688,124.828a19.464,19.464,0,0,1,9.327-4.078,19.172,19.172,0,0,1,10.107,1.215,39.363,39.363,0,0,0,29.151,0,19.37,19.37,0,0,1,19.434,2.863c.087.087.217.174.3.26a9.55,9.55,0,0,1,6.941-2.993A34.015,34.015,0,0,0,246.985,89.3H232.409A34.015,34.015,0,0,0,198.4,122.095a9.979,9.979,0,0,1,6.941,2.993,1.423,1.423,0,0,0,.347-.26Z" transform="translate(-169.206 -89.3)" fill="#325f8d"/>
    <path id="Path_183" data-name="Path 183" d="M395.516,288.1h-4.858L383.5,302.415a14.533,14.533,0,0,0,8.632-4.989,14.822,14.822,0,0,0,3.384-9.327Z" transform="translate(-274.011 -201.862)" fill="#325f8d"/>
    <path id="Path_184" data-name="Path 184" d="M140.867,222.915V199.1a12.208,12.208,0,0,0-8.5,6.55,12.147,12.147,0,0,0,8.5,17.265Z" transform="translate(-131.107 -151.47)" fill="#325f8d"/>
    <path id="Path_185" data-name="Path 185" d="M443.317,210.986a12.047,12.047,0,0,0-2.733-7.678A12.218,12.218,0,0,0,433.6,199.1v23.815a12.109,12.109,0,0,0,9.717-11.929Z" transform="translate(-302.378 -151.47)" fill="#325f8d"/>
    <path id="Path_186" data-name="Path 186" d="M388.8,187.3h9.717v34.009H388.8Z" transform="translate(-277.012 -144.788)" fill="#325f8d"/>
    <path id="Path_187" data-name="Path 187" d="M185.717,195.542V187.3H176v34.009h9.717Z" transform="translate(-156.523 -144.788)" fill="#325f8d"/>
    <path id="Path_188" data-name="Path 188" d="M413.68,519.758a12.161,12.161,0,0,1-1.779,0l-4.9,9.717h16.441a4.888,4.888,0,0,0,4.858-4.858V514.9h-3.774a14.637,14.637,0,0,1-10.845,4.858Z" transform="translate(-287.317 -330.278)" fill="#325f8d"/>
    <path id="Path_189" data-name="Path 189" d="M272.367,334.171A40.526,40.526,0,0,1,262.65,333l-2.906,10.237a14.685,14.685,0,0,1-3.644,6.116l.477.347h0a28.371,28.371,0,0,0,31.754,0l.477-.347h0a14.686,14.686,0,0,1-3.644-6.116L282.084,333h0a40.792,40.792,0,0,1-9.717,1.171Z" transform="translate(-201.876 -227.285)" fill="#325f8d"/>
    <path id="Path_190" data-name="Path 190" d="M222.066,412.644a24.465,24.465,0,0,1,24.249-22.427h15.53a34.019,34.019,0,0,0-23.772-9.717H227.922a37.929,37.929,0,0,1-52.749,0H165.109A34.065,34.065,0,0,0,131.1,414.509v34.009a4.888,4.888,0,0,0,4.858,4.858h19.434v-17a4.858,4.858,0,0,1,9.717,0v17h55.872a15.785,15.785,0,0,1-1.345-7.852Z" transform="translate(-131.1 -254.18)" fill="#325f8d"/>
    <path id="Path_191" data-name="Path 191" d="M283.959,208.37V193.535a9.7,9.7,0,0,0-13.361-9.066,48.575,48.575,0,0,1-36.439,0,9.7,9.7,0,0,0-13.361,9.066V208.37a31.58,31.58,0,0,0,63.16,0Z" transform="translate(-181.888 -142.781)" fill="#325f8d"/>
    <path id="Path_192" data-name="Path 192" d="M450.091,438.748A14.559,14.559,0,0,0,435.515,425.3H374.394a14.559,14.559,0,0,0-14.575,13.448l-2.429,32.881h0a6.581,6.581,0,0,0,12.45,3.34l5.292-10.541h0a14.586,14.586,0,1,1,25.03-9.977h9.717a14.581,14.581,0,1,1,25.073,10.064l5.292,10.541a6.5,6.5,0,0,0,4.945,3.557,6.688,6.688,0,0,0,5.769-2.039,6.485,6.485,0,0,0,1.735-4.858Z" transform="translate(-259.222 -279.546)" fill="#325f8d"/>
    <path id="Path_193" data-name="Path 193" d="M420.917,486.158a4.858,4.858,0,1,1-4.858-4.858,4.85,4.85,0,0,1,4.858,4.858" transform="translate(-289.695 -311.254)" fill="#325f8d"/>
    <path id="Path_194" data-name="Path 194" d="M510.517,486.158a4.858,4.858,0,1,1-4.858-4.858,4.85,4.85,0,0,1,4.858,4.858" transform="translate(-340.427 -311.254)" fill="#325f8d"/>
  </g>
</svg>
