<svg xmlns="http://www.w3.org/2000/svg" width="194" height="30" viewBox="0 0 194 30">
  <g id="Group_139" data-name="Group 139" transform="translate(-270 -3938)">
    <g id="star" transform="translate(88.026 3780.25)">
      <path id="Path_208" data-name="Path 208" d="M204.711,176.762a.394.394,0,0,0-.1.258l1.7,10.39a.292.292,0,0,1-.4.314l-8.853-4.909a.209.209,0,0,0-.25,0l-8.853,4.807c-.2.1-.4-.055-.4-.314l1.7-10.39a.292.292,0,0,0-.1-.258l-7.1-7.234a.28.28,0,0,1,.152-.461l9.907-1.5c.1,0,.152-.055.2-.157l4.449-9.4a.24.24,0,0,1,.447,0l4.449,9.4c.054.1.1.157.2.157l9.907,1.495a.286.286,0,0,1,.152.461Z" transform="translate(0)" fill="#6cde9d"/>
    </g>
    <g id="star-2" data-name="star" transform="translate(129.026 3780.25)">
      <path id="Path_208-2" data-name="Path 208" d="M204.711,176.762a.394.394,0,0,0-.1.258l1.7,10.39a.292.292,0,0,1-.4.314l-8.853-4.909a.209.209,0,0,0-.25,0l-8.853,4.807c-.2.1-.4-.055-.4-.314l1.7-10.39a.292.292,0,0,0-.1-.258l-7.1-7.234a.28.28,0,0,1,.152-.461l9.907-1.5c.1,0,.152-.055.2-.157l4.449-9.4a.24.24,0,0,1,.447,0l4.449,9.4c.054.1.1.157.2.157l9.907,1.495a.286.286,0,0,1,.152.461Z" transform="translate(0)" fill="#6cde9d"/>
    </g>
    <g id="star-3" data-name="star" transform="translate(170.026 3780.25)">
      <path id="Path_208-3" data-name="Path 208" d="M204.711,176.762a.394.394,0,0,0-.1.258l1.7,10.39a.292.292,0,0,1-.4.314l-8.853-4.909a.209.209,0,0,0-.25,0l-8.853,4.807c-.2.1-.4-.055-.4-.314l1.7-10.39a.292.292,0,0,0-.1-.258l-7.1-7.234a.28.28,0,0,1,.152-.461l9.907-1.5c.1,0,.152-.055.2-.157l4.449-9.4a.24.24,0,0,1,.447,0l4.449,9.4c.054.1.1.157.2.157l9.907,1.495a.286.286,0,0,1,.152.461Z" transform="translate(0)" fill="#6cde9d"/>
    </g>
    <g id="star-4" data-name="star" transform="translate(211.026 3780.25)">
      <path id="Path_208-4" data-name="Path 208" d="M204.711,176.762a.394.394,0,0,0-.1.258l1.7,10.39a.292.292,0,0,1-.4.314l-8.853-4.909a.209.209,0,0,0-.25,0l-8.853,4.807c-.2.1-.4-.055-.4-.314l1.7-10.39a.292.292,0,0,0-.1-.258l-7.1-7.234a.28.28,0,0,1,.152-.461l9.907-1.5c.1,0,.152-.055.2-.157l4.449-9.4a.24.24,0,0,1,.447,0l4.449,9.4c.054.1.1.157.2.157l9.907,1.495a.286.286,0,0,1,.152.461Z" transform="translate(0)" fill="#6cde9d"/>
    </g>
    <g id="star-5" data-name="star" transform="translate(252.026 3780.25)">
      <path id="Path_208-5" data-name="Path 208" d="M204.711,176.762a.394.394,0,0,0-.1.258l1.7,10.39a.292.292,0,0,1-.4.314l-8.853-4.909a.209.209,0,0,0-.25,0l-8.853,4.807c-.2.1-.4-.055-.4-.314l1.7-10.39a.292.292,0,0,0-.1-.258l-7.1-7.234a.28.28,0,0,1,.152-.461l9.907-1.5c.1,0,.152-.055.2-.157l4.449-9.4a.24.24,0,0,1,.447,0l4.449,9.4c.054.1.1.157.2.157l9.907,1.495a.286.286,0,0,1,.152.461Z" transform="translate(0)" fill="#6cde9d"/>
    </g>
  </g>
</svg>
